<?xml version="1.0" encoding="UTF-8" standalone="no"?>
<!-- Created with Inkscape (http://www.inkscape.org/) -->

<svg
   version="1.1"
   id="svg2"
   width="757"
   height="293"
   viewBox="0 0 757 293"
   sodipodi:docname="sprite.svg"
   xml:space="preserve"
   inkscape:version="1.2.2 (732a01da63, 2022-12-09)"
   xmlns:inkscape="http://www.inkscape.org/namespaces/inkscape"
   xmlns:sodipodi="http://sodipodi.sourceforge.net/DTD/sodipodi-0.dtd"
   xmlns:xlink="http://www.w3.org/1999/xlink"
   xmlns="http://www.w3.org/2000/svg"
   xmlns:svg="http://www.w3.org/2000/svg"><defs
     id="defs6"><color-profile
       name="sRGB-IEC61966-2.1"
       xlink:href="../../../../../WINDOWS/system32/spool/drivers/color/sRGB%20Color%20Space%20Profile.icm"
       id="color-profile1648" /><color-profile
       name="ASUS_X556UB_8086_834C4E51"
       xlink:href="../../../../../WINDOWS/system32/spool/drivers/color/X556UB_8086_834C4E51.icm"
       id="color-profile1650" /><style
       id="style716">.cls-1{fill-rule:evenodd;}</style></defs><sodipodi:namedview
     id="namedview4"
     pagecolor="#ffffff"
     bordercolor="#999999"
     borderopacity="1"
     inkscape:showpageshadow="0"
     inkscape:pageopacity="0"
     inkscape:pagecheckerboard="0"
     inkscape:deskcolor="#d1d1d1"
     showgrid="false"
     inkscape:zoom="1.5984148"
     inkscape:cx="336.58347"
     inkscape:cy="214.5876"
     inkscape:window-width="1920"
     inkscape:window-height="1017"
     inkscape:window-x="-8"
     inkscape:window-y="-8"
     inkscape:window-maximized="1"
     inkscape:current-layer="g8" /><g
     inkscape:groupmode="layer"
     inkscape:label="Image"
     id="g8"><g
       id="g539"
       transform="matrix(0.19784474,0,0,0.19784474,-5.3052161,40.054906)"
       style="fill:#32cd32;fill-opacity:1"><text
         transform="translate(168.783,543.8093)"
         fill="#ffff00"
         font-family="Verdana-Bold"
         font-size="20px"
         id="text510"
         style="fill:#32cd32;fill-opacity:1">simpleicon.com</text><text
         transform="translate(9.1931,567.8093)"
         fill="#ffff00"
         font-family="Verdana"
         font-size="20px"
         id="text512"
         style="fill:#32cd32;fill-opacity:1">Collection Of Flat Icon, Symbols And Glyph Icons</text><g
         id="g524"
         style="fill:#32cd32;fill-opacity:1">
	<path
   d="m 265.229,364.383 c -5.207,-3.826 -5.758,-9.575 -5.758,-9.575 l -1.951,-12.473 h -62.204 l -1.957,12.473 c 0,0 -0.544,5.749 -5.748,9.575 -5.198,3.83 -9.306,7.113 -5.198,7.669 3.955,0.531 41.256,0.048 44.008,0 2.759,0.048 40.052,0.531 44.011,0 4.099,-0.556 -0.01,-3.831 -5.203,-7.669 z"
   id="path514"
   style="fill:#32cd32;fill-opacity:1" />
	<path
   d="m 120.538,259.694 c 0,-5.77 -4.681,-10.451 -10.452,-10.451 H 60.453 C 54.682,249.243 50,253.924 50,259.694 v 109.718 c 0,5.777 4.682,10.453 10.453,10.453 h 49.637 c 5.768,0 10.452,-4.676 10.452,-10.453 V 259.694 Z m -40.453,1.308 h 10.451 c 0.722,0 1.306,0.583 1.306,1.3 0,0.724 -0.584,1.312 -1.306,1.312 H 80.085 c -0.722,0 -1.308,-0.592 -1.308,-1.312 0.001,-0.725 0.587,-1.3 1.308,-1.3 z m 4.79,112.683 c -2.887,0 -5.229,-2.338 -5.229,-5.227 0,-2.885 2.342,-5.227 5.229,-5.227 2.885,0 5.225,2.334 5.225,5.227 0,2.889 -2.336,5.227 -5.225,5.227 z m 29.134,-14.717 H 56.531 v -87.521 h 57.479 v 87.521 z"
   id="path516"
   style="fill:#32cd32;fill-opacity:1" />
	<path
   d="M 447.343,189.137 H 339.846 c -8.095,0 -14.657,6.558 -14.657,14.655 v 153.854 c 0,8.096 6.563,14.662 14.657,14.662 h 107.497 c 8.1,0 14.657,-6.566 14.657,-14.662 V 203.789 c -0.004,-8.097 -6.561,-14.652 -14.657,-14.652 z m -74.795,175.016 c -4.047,0 -7.334,-3.274 -7.334,-7.318 0,-4.048 3.287,-7.33 7.334,-7.33 4.04,0 7.315,3.282 7.315,7.33 10e-4,4.044 -3.275,7.318 -7.315,7.318 z m 21.043,0 c -4.04,0 -7.323,-3.274 -7.323,-7.318 0,-4.048 3.283,-7.33 7.323,-7.33 4.052,0 7.326,3.282 7.326,7.33 0,4.044 -3.27,7.318 -7.326,7.318 z m 21.063,0 c -4.052,0 -7.327,-3.274 -7.327,-7.318 0,-4.048 3.275,-7.33 7.327,-7.33 4.043,0 7.322,3.282 7.322,7.33 0,4.044 -3.279,7.318 -7.322,7.318 z m 38.185,-21.167 H 334.35 V 201.954 h 118.489 z"
   id="path518"
   style="fill:#32cd32;fill-opacity:1" />
	<path
   d="m 358.547,176.778 h 18.017 v -32.629 c 0,-6.639 -5.379,-12.014 -12.014,-12.014 H 88.287 c -6.633,0 -12.014,5.375 -12.014,12.014 v 92.739 h 18.021 v -86.736 h 264.253 z"
   id="path520"
   style="fill:#32cd32;fill-opacity:1" />
	<path
   d="m 132.899,294.287 v 36.034 H 312.83 v -36.034 z m 93.517,26.257 c -4.548,0 -8.24,-3.693 -8.24,-8.24 0,-4.546 3.692,-8.239 8.24,-8.239 4.549,0 8.24,3.693 8.24,8.239 0,4.546 -3.691,8.24 -8.24,8.24 z"
   id="path522"
   style="fill:#32cd32;fill-opacity:1" />
</g></g><g
       transform="matrix(0.00832027,0,0,-0.00832027,94.879121,96.579375)"
       id="g567"
       style="fill:#32cd32;fill-opacity:1"><path
         d="M 689.5,4113.5 C 468.5,4059.5 267,3892.4 161.4,3681.2 L 100,3558.4 V 107.5 -3343.4 l 61.4,-122.8 c 76.1,-157.2 223.5,-304.6 380.7,-380.7 l 122.8,-61.4 H 5000 9335.1 l 122.8,61.4 c 157.2,76.1 304.6,223.5 380.7,380.7 l 61.4,122.8 V 107.5 3558.4 l -61.4,122.8 c -76.1,157.2 -223.5,304.6 -380.7,380.7 l -122.8,61.4 -4286,4.9 c -2357.9,0 -4317.9,-4.9 -4359.6,-14.7 z M 2096.8,3374.2 C 2313,3241.6 2340,2919.8 2146,2743 c -90.9,-83.5 -240.7,-117.9 -353.7,-81 -181.8,58.9 -280,194 -280,385.6 0,223.5 154.7,375.8 380.7,375.8 78.6,-0.1 152.3,-17.3 203.8,-49.2 z m 1179,0 c 216.1,-132.6 243.2,-454.4 49.1,-631.2 -90.9,-83.5 -240.7,-117.9 -353.7,-81 -181.8,58.9 -280,194 -280,385.6 0,223.5 154.7,375.8 380.7,375.8 78.6,-0.1 152.3,-17.3 203.9,-49.2 z m 1178.9,0 c 115.4,-71.2 176.8,-186.7 176.8,-334 0,-164.6 -71.2,-272.6 -230.9,-351.2 -110.5,-54 -127.7,-56.5 -233.3,-29.5 -194,51.6 -297.2,186.7 -297.2,388.1 0,223.5 154.7,375.8 380.7,375.8 78.7,-0.1 152.4,-17.3 203.9,-49.2 z M 9150.9,-580.2 V -3134.6 H 5012.3 873.7 v 2554.4 2554.4 h 4138.6 4138.6 z"
         id="path561"
         style="fill:#32cd32;fill-opacity:1" /><path
         d="m 2931.9,372.8 -213.7,-326.7 442.1,-292.3 444.6,-292.3 -444.6,-289.8 -442.1,-292.3 194,-299.6 c 108.1,-167 211.2,-311.9 228.4,-324.2 46.7,-29.5 1463.9,911.2 1522.8,1009.5 83.5,149.8 44.2,373.3 -86,488.8 C 4530.9,-202 3167.7,697 3150.5,697 c -2.4,0 -100.7,-147.4 -218.6,-324.2 z"
         id="path563"
         style="fill:#32cd32;fill-opacity:1" /><path
         d="m 5000,-1562.6 v -393 h 982.5 982.5 v 393 393 H 5982.5 5000 Z"
         id="path565"
         style="fill:#32cd32;fill-opacity:1" /></g><g
       transform="matrix(0.00651019,0,0,-0.00651019,373.27732,135.00686)"
       fill="#000000"
       stroke="none"
       id="g613"
       style="fill:#32cd32;fill-opacity:1"><path
         d="m 8500,12793 c -203,-19 -252,-24 -264,-29 -21,-8 -67,-401 -84,-718 l -7,-129 -110,-27 c -60,-15 -144,-41 -185,-58 -105,-43 -337,-154 -397,-191 -28,-17 -53,-31 -55,-31 -3,0 -151,120 -329,266 -178,146 -330,268 -336,271 -24,10 -229,-164 -382,-323 -147,-152 -315,-362 -303,-377 43,-57 207,-259 347,-427 94,-113 175,-211 179,-218 4,-8 -9,-38 -34,-78 -67,-106 -145,-271 -180,-379 -18,-55 -43,-132 -56,-172 -13,-39 -24,-78 -24,-86 0,-11 -19,-16 -72,-21 -390,-36 -765,-79 -775,-90 -31,-30 -51,-432 -34,-649 12,-151 35,-315 46,-325 4,-5 299,-34 757,-77 l 77,-7 6,-41 c 4,-23 15,-62 25,-87 10,-25 34,-97 54,-161 39,-121 120,-293 187,-393 22,-33 38,-65 35,-73 -3,-7 -83,-106 -179,-220 -264,-316 -348,-423 -340,-436 34,-60 195,-249 308,-363 149,-150 382,-344 393,-328 4,6 99,86 212,179 113,93 250,207 305,254 55,48 107,92 117,99 14,11 33,4 130,-51 134,-76 299,-144 459,-187 63,-17 121,-35 127,-39 8,-5 23,-109 42,-302 30,-293 57,-524 64,-545 8,-21 310,-37 569,-31 206,5 407,24 423,39 2,3 20,180 39,394 20,214 38,404 41,422 6,38 4,37 177,88 145,43 338,128 455,201 47,30 90,52 96,49 6,-2 67,-52 136,-111 232,-200 522,-426 537,-421 27,11 138,96 200,153 129,120 483,521 483,547 0,3 -114,141 -252,307 -139,165 -263,313 -275,328 l -22,27 59,114 c 79,151 156,344 189,471 l 26,104 185,17 c 102,9 294,27 427,39 l 242,23 6,26 c 13,63 26,219 31,380 9,237 -17,582 -44,599 -7,4 -197,24 -424,45 -227,21 -416,40 -420,42 -4,2 -12,30 -18,62 -27,137 -115,364 -206,533 l -65,121 38,46 c 21,26 139,171 264,323 124,152 229,281 233,288 8,12 -71,113 -203,260 -146,162 -481,451 -504,434 -83,-63 -382,-305 -487,-394 -75,-62 -142,-119 -151,-126 -12,-10 -54,7 -229,96 -153,76 -247,116 -325,139 -60,18 -120,32 -132,32 -25,0 -25,-3 -49,255 -17,191 -64,608 -68,612 -8,8 -126,23 -252,32 -130,10 -372,12 -454,4 z m 455,-2094 c 217,-36 427,-151 610,-333 179,-178 289,-374 335,-601 104,-501 -99,-998 -520,-1276 -192,-127 -378,-186 -616,-196 -222,-10 -388,24 -579,117 -239,117 -419,293 -546,534 -96,183 -134,343 -133,571 1,281 77,507 244,723 212,275 500,446 795,471 111,9 329,4 410,-10 z"
         id="path605"
         style="fill:#32cd32;fill-opacity:1" /><path
         d="m 8500,10521 c -365,-80 -663,-359 -777,-727 -25,-83 -27,-101 -27,-279 -1,-207 4,-238 65,-396 65,-169 235,-378 398,-488 90,-61 214,-117 317,-143 128,-32 372,-32 490,0 140,38 241,86 354,170 320,238 473,583 430,970 -27,250 -124,448 -301,617 -134,128 -274,210 -448,262 -119,35 -371,43 -501,14 z m 382,-256 c 228,-48 440,-209 537,-407 17,-35 41,-101 52,-147 18,-73 21,-105 17,-235 -4,-132 -8,-161 -34,-236 -76,-227 -298,-429 -546,-496 -76,-21 -290,-24 -358,-5 -147,40 -267,110 -374,217 -45,44 -96,106 -115,137 -222,373 -105,862 259,1078 74,43 186,87 260,99 75,13 231,10 302,-5 z"
         id="path607"
         style="fill:#32cd32;fill-opacity:1" /><path
         d="m 4716,8448 c -75,-191 -162,-428 -251,-680 l -98,-278 h -122 c -231,0 -583,-47 -788,-106 -70,-20 -129,-35 -131,-33 -1,2 -36,51 -77,109 -140,200 -570,790 -575,790 -10,0 -181,-68 -219,-88 -22,-11 -74,-36 -115,-56 -41,-19 -120,-61 -175,-94 -55,-32 -148,-87 -207,-122 -105,-62 -250,-166 -342,-245 l -46,-41 120,-259 c 67,-143 171,-367 232,-498 l 111,-238 -76,-77 c -196,-200 -433,-511 -513,-675 -16,-32 -32,-57 -37,-57 -4,0 -146,24 -315,54 -329,58 -773,129 -777,124 -8,-8 -103,-248 -140,-353 C 124,5479 40,5067 5,4785 l -6,-50 508,-195 508,-195 2,-95 c 4,-171 23,-381 44,-489 11,-58 27,-141 35,-183 8,-43 26,-116 39,-163 14,-47 25,-92 25,-100 0,-7 -93,-80 -207,-161 C 838,3073 640,2930 512,2836 304,2684 280,2663 285,2643 c 22,-88 216,-464 346,-672 74,-116 223,-330 264,-378 l 30,-34 175,81 c 172,81 736,339 796,365 l 30,14 135,-125 c 169,-158 253,-221 482,-361 138,-84 182,-116 180,-130 -1,-10 -22,-142 -47,-293 -44,-266 -116,-748 -116,-773 0,-7 15,-18 33,-26 225,-90 426,-152 715,-220 193,-46 473,-94 483,-83 18,20 261,659 355,929 l 38,113 h 152 c 262,0 447,26 712,102 122,34 146,38 157,27 7,-8 153,-212 325,-454 172,-242 314,-442 316,-443 3,-4 91,37 361,170 112,55 243,130 345,197 145,96 331,233 381,281 18,16 15,25 -81,241 -55,123 -159,350 -230,504 l -130,279 117,126 c 160,170 305,368 405,552 25,48 50,89 54,91 4,2 95,-11 202,-29 559,-94 883,-145 894,-141 22,9 178,453 221,627 8,36 20,75 25,87 9,21 73,382 84,475 l 6,47 -48,21 c -62,28 -480,186 -764,290 l -228,83 v 156 c 0,179 -10,281 -41,448 -18,99 -67,314 -85,375 -4,12 44,51 188,154 217,155 695,511 703,525 7,11 -61,171 -143,334 -116,233 -266,468 -424,667 l -77,97 -133,-58 c -184,-81 -480,-217 -687,-317 l -173,-84 -134,127 c -142,134 -314,268 -429,336 -60,35 -183,116 -208,137 -4,4 11,123 33,266 112,714 131,836 128,839 -2,1 -73,29 -158,62 -180,70 -399,143 -431,143 -12,0 -47,9 -78,19 -80,28 -488,110 -546,111 -16,0 -26,-16 -49,-72 z M 4535,5825 c 276,-49 564,-184 772,-363 246,-212 460,-599 518,-936 22,-127 20,-347 -4,-488 -44,-255 -154,-525 -285,-698 -231,-307 -631,-548 -1020,-615 -114,-19 -334,-19 -454,0 -228,37 -486,130 -646,233 -356,230 -620,625 -702,1052 -24,127 -24,358 0,495 90,509 329,862 761,1126 114,70 293,142 430,175 193,46 439,53 630,19 z"
         id="path609"
         style="fill:#32cd32;fill-opacity:1" /><path
         d="m 4175,5623 c -215,-25 -337,-62 -515,-154 -350,-181 -559,-444 -665,-838 -50,-184 -58,-241 -59,-391 0,-142 16,-252 55,-371 24,-74 109,-259 119,-259 3,0 34,-42 67,-92 148,-223 355,-389 609,-488 506,-198 1037,-94 1437,280 180,168 328,436 378,682 69,343 12,664 -173,974 -199,335 -459,524 -858,623 -134,33 -292,47 -395,34 z m 345,-374 c 312,-78 532,-261 681,-565 68,-141 83,-214 83,-409 0,-199 -15,-270 -90,-424 -55,-115 -112,-196 -195,-279 -290,-285 -627,-368 -1024,-252 -258,75 -462,253 -595,519 -127,254 -139,573 -33,816 105,236 289,424 525,535 217,102 408,119 648,59 z"
         id="path611"
         style="fill:#32cd32;fill-opacity:1" /></g><image
       width="77.810005"
       height="77.810005"
       preserveAspectRatio="none"
       style="image-rendering:optimizeQuality;fill:#32cd32;fill-opacity:1"
       xlink:href="../svg_nosubir/carrito.png"
       id="image661"
       x="281.88184"
       y="56.796749" /><path
       style="fill:#32cd32;stroke-width:0.079398;fill-opacity:1"
       d="m 311.84199,134.49477 c -2.33821,-0.44683 -4.25106,-1.89372 -5.23067,-3.95649 -0.39472,-0.83117 -0.51141,-1.30993 -0.56619,-2.32306 -0.18026,-3.33327 1.55865,-6.02455 4.58016,-7.08865 3.01575,-1.06207 6.20437,0.0134 8.03719,2.71087 0.6997,1.02977 1.07816,2.18882 1.14429,3.5044 0.16318,3.24622 -2.0294,6.22236 -5.17756,7.02789 -0.82316,0.21062 -2.05108,0.26571 -2.78722,0.12504 z m 2.15958,-4.34417 c 0.53967,-0.25367 1.10985,-0.80881 1.35972,-1.32383 0.18926,-0.3901 0.22003,-0.55187 0.22232,-1.16901 0.002,-0.65201 -0.0207,-0.76376 -0.25815,-1.24604 -0.29215,-0.59344 -0.6241,-0.89928 -1.34017,-1.23474 -0.39331,-0.18426 -0.56539,-0.21667 -1.13824,-0.21435 -0.81836,0.003 -1.2704,0.19137 -1.85092,0.76999 -0.56561,0.56377 -0.80471,1.13727 -0.80333,1.92681 0.002,0.92168 0.37483,1.66091 1.09009,2.15916 0.7328,0.51046 2.00779,0.66617 2.71868,0.33201 z m 30.07389,4.38159 c -2.25504,-0.35948 -4.22342,-1.80535 -5.22345,-3.83687 -0.54868,-1.11462 -0.70224,-1.78942 -0.69992,-3.07559 0.002,-1.24952 0.15552,-1.95422 0.64755,-2.97742 0.68711,-1.42889 1.91229,-2.58901 3.5157,-3.32903 0.95918,-0.44269 1.4887,-0.5542 2.60848,-0.54932 2.87106,0.0125 5.06619,1.35878 6.33686,3.88637 0.46397,0.92294 0.58331,1.41269 0.62678,2.57241 0.0327,0.87365 0.0112,1.21144 -0.1167,1.82653 -0.56286,2.70768 -2.36747,4.60372 -5.06048,5.31687 -0.70702,0.18723 -1.99339,0.2683 -2.63482,0.16605 z m 2.08279,-4.4476 c 0.64131,-0.29159 0.9883,-0.61162 1.31361,-1.21154 0.2483,-0.45792 0.27042,-0.55464 0.26851,-1.17392 -0.002,-0.61359 -0.0265,-0.72025 -0.27088,-1.17445 -0.37443,-0.69588 -1.06921,-1.32502 -1.64959,-1.49374 -1.55093,-0.45087 -3.1705,0.56819 -3.4241,2.1545 -0.19203,1.20113 0.36868,2.36621 1.37595,2.85902 0.80485,0.39377 1.58003,0.40681 2.3865,0.0401 z m -38.51644,-10.32265 c -1.11915,-0.0441 -1.30928,-0.0714 -1.55513,-0.2234 -0.35495,-0.21937 -1.03895,-0.93934 -1.214,-1.27784 -0.17717,-0.34262 -0.6415,-2.33493 -6.34529,-27.226024 -0.93344,-4.073468 -1.72111,-7.430254 -1.75038,-7.459526 -0.13326,-0.133259 -1.3031,-0.167298 -6.0423,-0.175815 -5.70218,-0.01025 -6.83,-0.05948 -7.34162,-0.320489 -0.53368,-0.27226 -0.99149,-0.748351 -1.2422,-1.291788 -0.31309,-0.678654 -0.31772,-1.545916 -0.0118,-2.217241 0.26307,-0.577404 0.77903,-1.135901 1.28787,-1.394064 0.5628,-0.285536 1.24886,-0.322448 7.10931,-0.3825 5.95195,-0.06099 8.91549,0.0207 9.45807,0.260707 0.48952,0.216539 1.37145,1.056156 1.53271,1.459171 0.18542,0.46341 0.53404,1.885659 1.5575,6.353956 l 0.90265,3.940882 3.81461,0.04824 c 2.09804,0.02653 14.31897,0.06985 27.15762,0.09626 l 23.343,0.04803 0.25987,0.196228 c 0.60173,0.454377 0.99587,1.078962 1.09406,1.733722 0.0529,0.353065 -0.41249,2.611938 -1.79811,8.726581 -2.53689,11.19516 -4.01448,17.31313 -4.33039,17.92994 -0.18128,0.35396 -0.63845,0.76011 -1.14135,1.01397 l -0.47109,0.2378 -21.49926,-0.0132 c -11.8246,-0.007 -22.07303,-0.0359 -22.7743,-0.0635 z m 7.13917,-5.53381 1.25905,-0.0522 -0.0499,-0.36436 c -0.0274,-0.20039 -0.39831,-1.99003 -0.82416,-3.97696 l -0.77426,-3.61261 -3.31307,-0.0207 c -1.82218,-0.0114 -3.31306,-0.008 -3.31306,0.008 0,0.0306 1.72273,7.59098 1.7985,7.89284 l 0.0449,0.17877 1.9565,-2.4e-4 c 1.07607,-1.6e-4 2.52306,-0.0238 3.21554,-0.0525 z m 9.78025,-0.64199 c -0.0305,-0.3821 -0.17846,-1.78447 -0.32874,-3.11637 -0.15029,-1.3319 -0.31391,-2.78608 -0.36361,-3.23152 -0.0497,-0.44543 -0.1119,-0.84473 -0.13822,-0.88732 -0.0293,-0.0473 -1.56759,-0.0999 -3.95718,-0.13512 -3.59514,-0.053 -3.90931,-0.0472 -3.90931,0.0726 0,0.1234 1.56098,7.68306 1.62984,7.89317 0.0254,0.0774 0.81183,0.0992 3.57762,0.0992 h 3.5451 z m 8.24796,0.47639 c 0.06,-0.2855 0.47109,-3.69727 0.67688,-5.61741 0.0889,-0.8297 0.17617,-1.64015 0.19389,-1.80098 0.0239,-0.21661 -0.002,-0.30739 -0.0985,-0.35016 -0.0719,-0.0318 -1.51956,-0.0739 -3.21709,-0.0937 -2.94715,-0.0343 -4.93186,0.0155 -5.10797,0.12822 -0.0549,0.0352 -0.0207,0.62474 0.10455,1.79904 0.26338,2.47025 0.6648,5.84989 0.71437,6.0144 0.039,0.12945 0.26898,0.13895 3.36491,0.13895 h 3.32306 z m 17.0867,-3.71185 c 0.49309,-2.13978 0.89807,-3.95303 0.89995,-4.02945 0.003,-0.13004 -0.19739,-0.13895 -3.12973,-0.13895 h -3.13316 l -0.0795,0.29775 c -0.18223,0.68262 -1.59399,7.42464 -1.59399,7.61229 0,0.12409 0.87869,0.15716 4.04257,0.15217 l 2.09732,-0.003 0.89652,-3.8905 z m -8.25129,2.58043 c 0.82255,-3.86432 1.37367,-6.52391 1.37367,-6.62903 0,-0.10518 -0.47867,-0.1198 -3.92389,-0.1198 h -3.92389 l -0.045,0.21835 c -0.041,0.19915 -0.57513,5.04601 -0.75464,6.84807 -0.0659,0.66143 -0.0592,0.7666 0.0547,0.85436 0.10076,0.0777 0.8931,0.0954 3.54345,0.0794 l 3.41367,-0.0207 z m -27.62715,-8.36915 c 0.02,-0.02 -0.6876,-3.40707 -1.69337,-8.105928 -0.0748,-0.349351 -0.18545,-0.688777 -0.24594,-0.754281 -0.0937,-0.101451 -0.60466,-0.122746 -3.4488,-0.143726 -3.19132,-0.02354 -3.33694,-0.01828 -3.29587,0.119097 0.0236,0.07905 0.45603,1.930181 0.96087,4.113625 1.17983,5.102703 1.08241,4.746213 1.31699,4.819263 0.17749,0.0553 6.34908,0.009 6.40612,-0.0481 z m 9.51635,-0.18598 c -0.0252,-0.16376 -0.24415,-2.0842 -0.48642,-4.26764 -0.24228,-2.183446 -0.46156,-4.103884 -0.48729,-4.267642 l -0.0468,-0.297742 -3.7811,0.0056 c -3.59555,0.0054 -4.93571,0.05061 -5.05576,0.170663 -0.0409,0.04088 1.57491,8.048251 1.7621,8.732431 0.0491,0.17936 0.24237,0.18808 4.58115,0.20672 l 3.56004,0.0153 z m 19.84241,0.20451 c 0.0294,-0.0294 0.46533,-2.02427 0.96871,-4.43295 0.69789,-3.339453 0.89321,-4.40144 0.82249,-4.472152 -0.0678,-0.06775 -1.2681,-0.100418 -4.45565,-0.121259 -2.3996,-0.01569 -4.36292,-0.01526 -4.36292,9.52e-4 0,0.01621 -0.21423,1.95842 -0.47607,4.316016 -0.26184,2.357593 -0.47622,4.383223 -0.47639,4.501403 -3.2e-4,0.21099 0.0101,0.21542 0.57532,0.24581 0.96607,0.0519 7.34742,0.0193 7.40451,-0.0378 z m 7.89753,-0.28391 c 0.053,-0.20743 0.52092,-2.21619 1.03985,-4.463916 0.64627,-2.799254 0.9178,-4.112489 0.86188,-4.168393 -0.12063,-0.120587 -6.09642,-0.111074 -6.30684,0.01004 -0.13544,0.07796 -0.29484,0.724734 -1.06642,4.327189 -0.49894,2.32954 -0.90962,4.30602 -0.91263,4.39216 -0.004,0.11144 0.0633,0.17173 0.23274,0.20895 0.13101,0.0288 1.54699,0.0566 3.14664,0.0617 l 2.90845,0.009 z m -17.20408,-0.87338 c 0.0718,-0.64411 0.29468,-2.63074 0.49535,-4.414727 0.20067,-1.783984 0.34347,-3.264994 0.31733,-3.291132 -0.0261,-0.02614 -0.25174,-0.07305 -0.50133,-0.104254 -0.60973,-0.07622 -10.41756,-0.08618 -10.42082,-0.01058 -0.001,0.03275 0.2207,2.069309 0.49359,4.525683 l 0.49615,4.46613 h 4.49462 4.49462 z m -4.97412,-20.900478 c -3.17003,-0.401392 -5.69561,-1.686203 -7.90627,-4.022076 -1.68743,-1.782999 -2.85661,-4.110062 -3.30989,-6.587817 -0.19405,-1.060696 -0.19556,-3.337205 -0.003,-4.376375 0.51254,-2.764707 1.71453,-5.055019 3.65706,-6.968302 3.35638,-3.305835 8.11909,-4.537836 12.56354,-3.249887 4.79423,1.389314 8.47767,5.502593 9.20271,10.276607 0.13494,0.888493 0.15289,3.204502 0.0318,4.1031 -0.33939,2.518635 -1.69466,5.138413 -3.68909,7.131098 -1.84525,1.843646 -4.05558,3.041063 -6.53694,3.541316 -0.87869,0.177147 -3.13663,0.262923 -4.01,0.152336 z m 1.84578,-7.484291 c 4.75143,-4.829862 8.79815,-8.978555 9.01072,-9.237784 l 0.20169,-0.245964 -1.32681,-1.231084 c -1.91916,-1.780697 -1.88728,-1.755124 -2.06754,-1.658648 -0.0841,0.04502 -2.07386,2.039097 -4.42165,4.431287 -2.34779,2.392189 -4.29046,4.358237 -4.31704,4.368994 -0.0266,0.01076 -0.90307,-0.786861 -1.94776,-1.772485 l -1.89943,-1.792042 -1.59408,1.598766 -1.59408,1.598765 2.86583,2.838144 c 2.62278,2.597452 4.08549,3.980227 4.21031,3.980227 0.0266,0 1.32255,-1.295179 2.87984,-2.878176 z"
       id="path1283" /><path
       class="cls-1"
       d="m 260.37966,97.969759 2.59758,2.597581 a 1.7630621,1.7630621 0 0 1 0,2.48592 l -2.09216,2.09216 a 13.975206,13.975206 0 0 1 1.29878,3.43797 h 2.70924 a 1.7630621,1.7630621 0 0 1 1.76307,1.76307 v 3.67304 a 1.7630621,1.7630621 0 0 1 -1.76307,1.76306 h -2.93843 a 13.887052,13.887052 0 0 1 -1.52799,3.36157 l 1.91586,1.91586 a 1.7630621,1.7630621 0 0 1 0,2.4918 l -2.59758,2.59758 a 1.7630621,1.7630621 0 0 1 -2.48591,0 l -2.09217,-2.09217 a 14.104497,14.104497 0 0 1 -3.46736,1.29879 v 2.70924 a 1.7630621,1.7630621 0 0 1 -1.76306,1.76306 h -3.69067 a 1.7630621,1.7630621 0 0 1 -1.76307,-1.76306 v -2.93844 a 14.104497,14.104497 0 0 1 -3.36157,-1.53387 l -1.92174,1.91587 a 1.7630621,1.7630621 0 0 1 -2.48591,0 l -2.59759,-2.59758 a 1.7630621,1.7630621 0 0 1 0,-2.48592 l 2.09217,-2.09216 a 13.834161,13.834161 0 0 1 -1.29878,-3.46148 h -2.70924 a 1.7630621,1.7630621 0 0 1 -1.76307,-1.76306 v -3.67305 a 1.7630621,1.7630621 0 0 1 1.76307,-1.76307 h 2.93843 a 13.945821,13.945821 0 0 1 1.53387,-3.36744 l -1.92174,-1.91586 a 1.7630621,1.7630621 0 0 1 0,-2.485921 l 2.59757,-2.597574 a 1.7630621,1.7630621 0 0 1 2.48592,0 l 2.09805,2.092165 a 14.00459,14.00459 0 0 1 3.46147,-1.298791 v -2.70336 a 1.7630621,1.7630621 0 0 1 1.76307,-1.763063 h 3.69655 a 1.7630621,1.7630621 0 0 1 1.76307,1.763063 v 2.938436 a 13.840038,13.840038 0 0 1 3.36744,1.533868 l 1.92174,-1.898234 a 1.7630621,1.7630621 0 0 1 2.49179,0 z M 205.01363,74.0215 c 4.85431,1.622021 11.61271,2.621087 19.11747,2.621087 7.50478,0 14.28081,-0.969681 19.1351,-2.621087 4.26074,-1.422201 6.89358,-3.144128 6.89358,-4.83079 0,-1.686662 -2.63284,-3.402708 -6.89358,-4.82491 -4.85429,-1.622021 -11.6127,-2.626967 -19.11746,-2.626967 -7.50477,0 -14.26318,1.004946 -19.13511,2.626967 -9.021,3.01483 -9.2737,6.552709 0,9.6557 z m 18.3241,39.85108 c -7.56354,-0.0705 -14.42773,-1.13424 -19.47596,-2.8209 a 23.431096,23.431096 0 0 1 -5.68882,-2.67398 v 11.07791 c 0.33498,1.56913 2.89143,3.15 6.85832,4.4723 4.85429,1.62202 11.6127,2.62696 19.11747,2.62696 1.26352,0 2.50942,0 3.72593,-0.0881 a 8.9798632,8.9798632 0 0 0 1.17538,1.48685 v 0 l 2.02752,2.02164 c -2.23321,0.18806 -4.56633,0.28797 -6.96409,0.28797 -7.88089,0 -15.05656,-1.08135 -20.28697,-2.82678 -2.75626,-0.91679 -9.403,-3.94338 -9.403,-7.55765 v -1.17538 q 0.0529,-24.759267 0.0118,-49.495027 c 0,-3.467358 3.60253,-6.394042 9.403,-8.339285 5.25393,-1.745431 12.42959,-2.826778 20.31047,-2.826778 7.8809,0 15.05655,1.081347 20.28697,2.826778 5.23043,1.745431 8.7683,4.354766 9.35599,7.40486 a 1.8277078,1.8277078 0 0 1 0.10578,0.622947 V 87.0329 a 8.8153107,8.8153107 0 0 0 -3.04422,-0.534793 h -0.69935 a 1.0872216,1.0872216 0 0 0 0,-0.135171 v 0 -11.559814 a 23.595648,23.595648 0 0 1 -5.74758,2.715121 c -5.20104,1.745431 -12.35907,2.856154 -20.25759,2.856154 -7.89851,0 -15.05654,-1.110723 -20.31047,-2.856154 A 23.431096,23.431096 0 0 1 198.1495,74.838387 V 86.70967 c 0.33498,1.575005 2.89142,3.155881 6.85831,4.478176 4.8543,1.622021 11.6127,2.626967 19.11747,2.626967 2.40364,0 4.73676,-0.105786 6.95234,-0.299725 l -0.95793,0.963809 c -0.13517,0.117538 -0.26446,0.235076 -0.39375,0.364366 a 8.8153107,8.8153107 0 0 0 -1.79245,2.57407 c -1.24002,0.05288 -2.50942,0.08232 -3.79058,0.08232 -7.88089,0 -15.05655,-1.081347 -20.28697,-2.826778 A 23.431096,23.431096 0 0 1 198.173,92.010651 v 11.077909 c 0.33498,1.56913 2.89143,3.14412 6.84068,4.4723 4.7015,1.56325 11.1073,2.55056 18.27121,2.62108 v 2.93844 c 0,0.25858 0,0.51717 0.0353,0.76987 z m 25.21178,-9.36186 a 7.2226778,7.2226778 0 1 1 -7.22855,7.22267 7.2226778,7.2226778 0 0 1 7.22855,-7.22267 z"
       id="path722"
       style="stroke-width:0.587687;fill:#32cd32;fill-opacity:1" /></g></svg>
